<mxfile host="app.diagrams.net" modified="2024-02-14T11:16:59.389Z" agent="Mozilla/5.0 (Windows NT 10.0; Win64; x64) AppleWebKit/537.36 (KHTML, like Gecko) Chrome/120.0.0.0 Safari/537.36" etag="N_DpgGomGVIV3FtZm_Dq" version="21.5.1" type="device">
  <diagram name="Page-1" id="WMn-sc3kFYOBHsjJBvzs">
    <mxGraphModel dx="860" dy="918" grid="1" gridSize="10" guides="1" tooltips="1" connect="1" arrows="1" fold="1" page="1" pageScale="1" pageWidth="827" pageHeight="1169" math="0" shadow="0">
      <root>
        <mxCell id="0" />
        <mxCell id="1" parent="0" />
        <mxCell id="vKy7ASg05o3stlkWsTDJ-1" value="" style="rounded=0;html=1;jettySize=auto;orthogonalLoop=1;fontSize=11;endArrow=block;endFill=0;endSize=8;strokeWidth=1;shadow=0;labelBackgroundColor=none;edgeStyle=orthogonalEdgeStyle;" edge="1" parent="1" source="vKy7ASg05o3stlkWsTDJ-2" target="vKy7ASg05o3stlkWsTDJ-5">
          <mxGeometry relative="1" as="geometry" />
        </mxCell>
        <mxCell id="vKy7ASg05o3stlkWsTDJ-2" value="Fenêtre des antécédents" style="rounded=1;whiteSpace=wrap;html=1;fontSize=12;glass=0;strokeWidth=1;shadow=0;" vertex="1" parent="1">
          <mxGeometry x="865" y="80" width="120" height="40" as="geometry" />
        </mxCell>
        <mxCell id="vKy7ASg05o3stlkWsTDJ-3" value="Voie basse" style="rounded=0;html=1;jettySize=auto;orthogonalLoop=1;fontSize=11;endArrow=block;endFill=0;endSize=8;strokeWidth=1;shadow=0;labelBackgroundColor=none;edgeStyle=orthogonalEdgeStyle;" edge="1" parent="1" source="vKy7ASg05o3stlkWsTDJ-5" target="vKy7ASg05o3stlkWsTDJ-59">
          <mxGeometry x="0.2" y="-35" relative="1" as="geometry">
            <mxPoint as="offset" />
            <mxPoint x="925" y="280" as="targetPoint" />
          </mxGeometry>
        </mxCell>
        <mxCell id="vKy7ASg05o3stlkWsTDJ-4" value="Césarienne" style="edgeStyle=orthogonalEdgeStyle;rounded=0;html=1;jettySize=auto;orthogonalLoop=1;fontSize=11;endArrow=block;endFill=0;endSize=8;strokeWidth=1;shadow=0;labelBackgroundColor=none;" edge="1" parent="1" source="vKy7ASg05o3stlkWsTDJ-5" target="vKy7ASg05o3stlkWsTDJ-6">
          <mxGeometry y="10" relative="1" as="geometry">
            <mxPoint as="offset" />
          </mxGeometry>
        </mxCell>
        <mxCell id="vKy7ASg05o3stlkWsTDJ-5" value="Type d&#39;accouchement" style="rhombus;whiteSpace=wrap;html=1;shadow=0;fontFamily=Helvetica;fontSize=12;align=center;strokeWidth=1;spacing=6;spacingTop=-4;" vertex="1" parent="1">
          <mxGeometry x="875" y="170" width="100" height="80" as="geometry" />
        </mxCell>
        <mxCell id="vKy7ASg05o3stlkWsTDJ-6" value="Saisir la cause" style="rounded=1;whiteSpace=wrap;html=1;fontSize=12;glass=0;strokeWidth=1;shadow=0;" vertex="1" parent="1">
          <mxGeometry x="1113" y="190" width="120" height="40" as="geometry" />
        </mxCell>
        <mxCell id="vKy7ASg05o3stlkWsTDJ-56" value="" style="edgeStyle=orthogonalEdgeStyle;rounded=0;orthogonalLoop=1;jettySize=auto;html=1;endArrow=block;endFill=0;endSize=8;" edge="1" parent="1" source="vKy7ASg05o3stlkWsTDJ-59">
          <mxGeometry relative="1" as="geometry">
            <mxPoint x="925" y="440" as="targetPoint" />
          </mxGeometry>
        </mxCell>
        <mxCell id="vKy7ASg05o3stlkWsTDJ-57" value="Non" style="edgeLabel;html=1;align=center;verticalAlign=middle;resizable=0;points=[];" vertex="1" connectable="0" parent="vKy7ASg05o3stlkWsTDJ-56">
          <mxGeometry x="-0.5017" y="-2" relative="1" as="geometry">
            <mxPoint x="15" y="-2" as="offset" />
          </mxGeometry>
        </mxCell>
        <mxCell id="vKy7ASg05o3stlkWsTDJ-58" value="" style="edgeStyle=orthogonalEdgeStyle;rounded=0;orthogonalLoop=1;jettySize=auto;html=1;endArrow=block;endFill=0;endSize=8;" edge="1" parent="1" source="vKy7ASg05o3stlkWsTDJ-59" target="vKy7ASg05o3stlkWsTDJ-61">
          <mxGeometry relative="1" as="geometry" />
        </mxCell>
        <mxCell id="vKy7ASg05o3stlkWsTDJ-59" value="Hospitalisations" style="rhombus;whiteSpace=wrap;html=1;shadow=0;fontFamily=Helvetica;fontSize=12;align=center;strokeWidth=1;spacing=6;spacingTop=-4;" vertex="1" parent="1">
          <mxGeometry x="875" y="280" width="100" height="80" as="geometry" />
        </mxCell>
        <mxCell id="vKy7ASg05o3stlkWsTDJ-60" value="" style="edgeStyle=orthogonalEdgeStyle;rounded=0;orthogonalLoop=1;jettySize=auto;html=1;endArrow=block;endFill=0;endSize=8;" edge="1" parent="1" source="vKy7ASg05o3stlkWsTDJ-61" target="vKy7ASg05o3stlkWsTDJ-66">
          <mxGeometry relative="1" as="geometry" />
        </mxCell>
        <mxCell id="vKy7ASg05o3stlkWsTDJ-61" value="Saisir le nombre" style="whiteSpace=wrap;html=1;shadow=0;strokeWidth=1;spacing=6;spacingTop=-4;rounded=1;" vertex="1" parent="1">
          <mxGeometry x="1026" y="300" width="120" height="40" as="geometry" />
        </mxCell>
        <mxCell id="vKy7ASg05o3stlkWsTDJ-62" value="" style="edgeStyle=orthogonalEdgeStyle;rounded=0;orthogonalLoop=1;jettySize=auto;html=1;endArrow=block;endFill=0;endSize=8;" edge="1" parent="1" source="vKy7ASg05o3stlkWsTDJ-66" target="vKy7ASg05o3stlkWsTDJ-67">
          <mxGeometry relative="1" as="geometry" />
        </mxCell>
        <mxCell id="vKy7ASg05o3stlkWsTDJ-63" value="Oui" style="edgeLabel;html=1;align=center;verticalAlign=middle;resizable=0;points=[];" vertex="1" connectable="0" parent="vKy7ASg05o3stlkWsTDJ-62">
          <mxGeometry x="-0.0751" relative="1" as="geometry">
            <mxPoint x="-15" y="-12" as="offset" />
          </mxGeometry>
        </mxCell>
        <mxCell id="vKy7ASg05o3stlkWsTDJ-64" value="" style="edgeStyle=orthogonalEdgeStyle;rounded=0;orthogonalLoop=1;jettySize=auto;html=1;entryX=0.5;entryY=0;entryDx=0;entryDy=0;endArrow=block;endFill=0;endSize=8;" edge="1" parent="1" source="vKy7ASg05o3stlkWsTDJ-66">
          <mxGeometry relative="1" as="geometry">
            <mxPoint x="925" y="440" as="targetPoint" />
            <Array as="points">
              <mxPoint x="1276" y="390" />
              <mxPoint x="925" y="390" />
            </Array>
          </mxGeometry>
        </mxCell>
        <mxCell id="vKy7ASg05o3stlkWsTDJ-65" value="Non" style="edgeLabel;html=1;align=center;verticalAlign=middle;resizable=0;points=[];" vertex="1" connectable="0" parent="vKy7ASg05o3stlkWsTDJ-64">
          <mxGeometry x="-0.8841" y="-2" relative="1" as="geometry">
            <mxPoint x="-12" as="offset" />
          </mxGeometry>
        </mxCell>
        <mxCell id="vKy7ASg05o3stlkWsTDJ-66" value="Saisir la liste des hospitalisations" style="rhombus;whiteSpace=wrap;html=1;shadow=0;strokeWidth=1;spacing=6;spacingTop=-4;rounded=0;" vertex="1" parent="1">
          <mxGeometry x="1201" y="286" width="150" height="70" as="geometry" />
        </mxCell>
        <mxCell id="vKy7ASg05o3stlkWsTDJ-67" value="Afficher un popup pour saisir la liste des hospitalisations." style="whiteSpace=wrap;html=1;shadow=0;strokeWidth=1;spacing=6;spacingTop=-4;rounded=0;" vertex="1" parent="1">
          <mxGeometry x="1446" y="291" width="120" height="60" as="geometry" />
        </mxCell>
        <mxCell id="vKy7ASg05o3stlkWsTDJ-68" value="" style="edgeStyle=orthogonalEdgeStyle;rounded=0;orthogonalLoop=1;jettySize=auto;html=1;endArrow=block;endFill=0;endSize=8;" edge="1" parent="1" source="vKy7ASg05o3stlkWsTDJ-69" target="vKy7ASg05o3stlkWsTDJ-71">
          <mxGeometry relative="1" as="geometry" />
        </mxCell>
        <mxCell id="vKy7ASg05o3stlkWsTDJ-69" value="Allergies" style="rhombus;whiteSpace=wrap;html=1;shadow=0;fontFamily=Helvetica;fontSize=12;align=center;strokeWidth=1;spacing=6;spacingTop=-4;" vertex="1" parent="1">
          <mxGeometry x="875" y="440" width="100" height="80" as="geometry" />
        </mxCell>
        <mxCell id="vKy7ASg05o3stlkWsTDJ-70" value="" style="edgeStyle=orthogonalEdgeStyle;rounded=0;orthogonalLoop=1;jettySize=auto;html=1;endArrow=block;endFill=0;endSize=8;" edge="1" parent="1" source="vKy7ASg05o3stlkWsTDJ-71" target="vKy7ASg05o3stlkWsTDJ-72">
          <mxGeometry relative="1" as="geometry" />
        </mxCell>
        <mxCell id="vKy7ASg05o3stlkWsTDJ-77" value="Non" style="edgeLabel;html=1;align=center;verticalAlign=middle;resizable=0;points=[];" vertex="1" connectable="0" parent="vKy7ASg05o3stlkWsTDJ-70">
          <mxGeometry x="-0.437" y="3" relative="1" as="geometry">
            <mxPoint x="-21" y="-8" as="offset" />
          </mxGeometry>
        </mxCell>
        <mxCell id="vKy7ASg05o3stlkWsTDJ-75" value="" style="edgeStyle=orthogonalEdgeStyle;rounded=0;orthogonalLoop=1;jettySize=auto;html=1;endSize=8;endArrow=block;endFill=0;" edge="1" parent="1" source="vKy7ASg05o3stlkWsTDJ-71" target="vKy7ASg05o3stlkWsTDJ-74">
          <mxGeometry relative="1" as="geometry" />
        </mxCell>
        <mxCell id="vKy7ASg05o3stlkWsTDJ-76" value="Oui" style="edgeLabel;html=1;align=center;verticalAlign=middle;resizable=0;points=[];" vertex="1" connectable="0" parent="vKy7ASg05o3stlkWsTDJ-75">
          <mxGeometry x="0.0095" y="1" relative="1" as="geometry">
            <mxPoint x="-4" y="-12" as="offset" />
          </mxGeometry>
        </mxCell>
        <mxCell id="vKy7ASg05o3stlkWsTDJ-71" value="Scolarisé ?" style="rhombus;whiteSpace=wrap;html=1;shadow=0;fontFamily=Helvetica;fontSize=12;align=center;strokeWidth=1;spacing=6;spacingTop=-4;" vertex="1" parent="1">
          <mxGeometry x="875" y="600" width="100" height="80" as="geometry" />
        </mxCell>
        <mxCell id="vKy7ASg05o3stlkWsTDJ-72" value="Valider" style="whiteSpace=wrap;html=1;shadow=0;strokeWidth=1;spacing=6;spacingTop=-4;rounded=1;" vertex="1" parent="1">
          <mxGeometry x="865" y="770" width="120" height="60" as="geometry" />
        </mxCell>
        <mxCell id="vKy7ASg05o3stlkWsTDJ-74" value="Sélectionner la classe (bouton radio)" style="whiteSpace=wrap;html=1;shadow=0;strokeWidth=1;spacing=6;spacingTop=-4;rounded=1;" vertex="1" parent="1">
          <mxGeometry x="1045" y="615" width="120" height="50" as="geometry" />
        </mxCell>
      </root>
    </mxGraphModel>
  </diagram>
</mxfile>
